<?xml version="1.0" encoding="UTF-8"?>
<svg xmlns="http://www.w3.org/2000/svg" xmlns:xlink="http://www.w3.org/1999/xlink" width="854" height="480" viewBox="0 0 854 480">
<defs>
<g>
<g id="glyph-0-0">
<path d="M 14.121094 -9.433594 C 14.65625 -8.964844 15.066406 -8.425781 15.351562 -7.8125 C 15.636719 -7.199219 15.78125 -6.453125 15.78125 -5.566406 C 15.78125 -3.78125 15.113281 -2.324219 13.78125 -1.191406 C 12.445312 -0.0585938 10.714844 0.507812 8.59375 0.507812 C 7.472656 0.507812 6.441406 0.304688 5.5 -0.0976562 C 4.554688 -0.5 3.878906 -0.871094 3.476562 -1.210938 L 3.085938 0.0585938 L 1.621094 0.0585938 L 1.425781 -6.640625 L 2.773438 -6.640625 C 2.878906 -6.132812 3.097656 -5.535156 3.4375 -4.855469 C 3.777344 -4.175781 4.1875 -3.5625 4.667969 -3.015625 C 5.175781 -2.441406 5.785156 -1.957031 6.492188 -1.566406 C 7.203125 -1.171875 8 -0.976562 8.886719 -0.976562 C 10.136719 -0.976562 11.101562 -1.261719 11.777344 -1.832031 C 12.453125 -2.402344 12.792969 -3.214844 12.792969 -4.277344 C 12.792969 -4.824219 12.6875 -5.296875 12.46875 -5.695312 C 12.257812 -6.089844 11.941406 -6.4375 11.523438 -6.738281 C 11.09375 -7.039062 10.566406 -7.308594 9.941406 -7.546875 C 9.316406 -7.789062 8.621094 -8.027344 7.851562 -8.261719 C 7.238281 -8.445312 6.558594 -8.695312 5.8125 -9.015625 C 5.0625 -9.332031 4.421875 -9.707031 3.886719 -10.136719 C 3.3125 -10.59375 2.84375 -11.152344 2.480469 -11.816406 C 2.117188 -12.480469 1.933594 -13.261719 1.933594 -14.160156 C 1.933594 -15.734375 2.519531 -17.070312 3.691406 -18.164062 C 4.863281 -19.257812 6.433594 -19.804688 8.398438 -19.804688 C 9.152344 -19.804688 9.925781 -19.707031 10.710938 -19.511719 C 11.5 -19.316406 12.140625 -19.082031 12.636719 -18.808594 L 13.085938 -19.824219 L 14.492188 -19.824219 L 14.785156 -13.632812 L 13.4375 -13.632812 C 13.164062 -15.019531 12.574219 -16.144531 11.671875 -17.015625 C 10.765625 -17.886719 9.660156 -18.320312 8.359375 -18.320312 C 7.292969 -18.320312 6.453125 -18.050781 5.839844 -17.515625 C 5.226562 -16.976562 4.921875 -16.328125 4.921875 -15.566406 C 4.921875 -14.980469 5.023438 -14.492188 5.226562 -14.101562 C 5.425781 -13.710938 5.730469 -13.378906 6.132812 -13.105469 C 6.523438 -12.84375 7.015625 -12.601562 7.609375 -12.375 C 8.199219 -12.144531 8.933594 -11.886719 9.804688 -11.601562 C 10.664062 -11.328125 11.476562 -11.007812 12.234375 -10.644531 C 13 -10.28125 13.625 -9.875 14.121094 -9.433594 Z "/>
</g>
<g id="glyph-0-1">
<path d="M 13.300781 -0.839844 C 12.453125 -0.488281 11.652344 -0.191406 10.898438 0.046875 C 10.144531 0.289062 9.21875 0.410156 8.125 0.410156 C 6.511719 0.410156 5.375 0.00390625 4.71875 -0.8125 C 4.058594 -1.625 3.730469 -2.773438 3.730469 -4.257812 L 3.730469 -17.304688 L 0.253906 -17.304688 L 0.253906 -19.179688 L 3.808594 -19.179688 L 3.808594 -25.175781 L 7.363281 -25.175781 L 7.363281 -19.179688 L 12.890625 -19.179688 L 12.890625 -17.304688 L 7.402344 -17.304688 L 7.402344 -6.542969 C 7.402344 -5.734375 7.429688 -5.0625 7.492188 -4.523438 C 7.546875 -3.980469 7.6875 -3.507812 7.910156 -3.105469 C 8.117188 -2.726562 8.429688 -2.441406 8.847656 -2.246094 C 9.265625 -2.050781 9.824219 -1.953125 10.527344 -1.953125 C 10.851562 -1.953125 11.332031 -1.984375 11.960938 -2.039062 C 12.59375 -2.101562 13.039062 -2.175781 13.300781 -2.265625 Z "/>
</g>
<g id="glyph-0-2">
<path d="M 19.648438 -0.351562 C 19.035156 -0.128906 18.5 0.046875 18.039062 0.1875 C 17.574219 0.320312 17.050781 0.390625 16.464844 0.390625 C 15.449219 0.390625 14.640625 0.152344 14.03125 -0.320312 C 13.429688 -0.796875 13.039062 -1.492188 12.871094 -2.402344 L 12.753906 -2.402344 C 11.90625 -1.464844 11 -0.75 10.03125 -0.253906 C 9.058594 0.242188 7.890625 0.488281 6.523438 0.488281 C 5.078125 0.488281 3.890625 0.046875 2.960938 -0.839844 C 2.027344 -1.726562 1.5625 -2.882812 1.5625 -4.316406 C 1.5625 -5.058594 1.667969 -5.722656 1.875 -6.308594 C 2.082031 -6.894531 2.394531 -7.421875 2.8125 -7.890625 C 3.136719 -8.28125 3.566406 -8.628906 4.101562 -8.9375 C 4.636719 -9.242188 5.136719 -9.484375 5.605469 -9.667969 C 6.191406 -9.890625 7.378906 -10.300781 9.171875 -10.898438 C 10.960938 -11.496094 12.167969 -11.964844 12.792969 -12.304688 L 12.792969 -14.238281 C 12.792969 -14.40625 12.757812 -14.734375 12.6875 -15.214844 C 12.613281 -15.695312 12.460938 -16.152344 12.226562 -16.582031 C 11.964844 -17.0625 11.597656 -17.484375 11.125 -17.84375 C 10.648438 -18.199219 9.972656 -18.378906 9.101562 -18.378906 C 8.503906 -18.378906 7.945312 -18.277344 7.429688 -18.078125 C 6.917969 -17.875 6.554688 -17.664062 6.347656 -17.441406 C 6.347656 -17.179688 6.410156 -16.796875 6.53125 -16.289062 C 6.65625 -15.78125 6.71875 -15.3125 6.71875 -14.882812 C 6.71875 -14.425781 6.515625 -14.011719 6.101562 -13.632812 C 5.695312 -13.253906 5.125 -13.066406 4.394531 -13.066406 C 3.742188 -13.066406 3.265625 -13.296875 2.960938 -13.757812 C 2.652344 -14.222656 2.5 -14.738281 2.5 -15.3125 C 2.5 -15.910156 2.710938 -16.484375 3.132812 -17.03125 C 3.558594 -17.578125 4.109375 -18.066406 4.785156 -18.496094 C 5.371094 -18.859375 6.082031 -19.167969 6.914062 -19.421875 C 7.746094 -19.675781 8.5625 -19.804688 9.355469 -19.804688 C 10.449219 -19.804688 11.402344 -19.730469 12.21875 -19.578125 C 13.03125 -19.429688 13.769531 -19.109375 14.433594 -18.613281 C 15.097656 -18.132812 15.601562 -17.476562 15.945312 -16.648438 C 16.292969 -15.824219 16.464844 -14.757812 16.464844 -13.457031 C 16.464844 -11.59375 16.445312 -9.945312 16.40625 -8.507812 C 16.367188 -7.066406 16.347656 -5.496094 16.347656 -3.789062 C 16.347656 -3.28125 16.433594 -2.878906 16.609375 -2.578125 C 16.785156 -2.277344 17.058594 -2.023438 17.421875 -1.816406 C 17.617188 -1.699219 17.925781 -1.632812 18.351562 -1.621094 C 18.773438 -1.609375 19.207031 -1.601562 19.648438 -1.601562 L 19.648438 -0.351562 M 12.832031 -10.664062 C 11.726562 -10.339844 10.753906 -10.019531 9.921875 -9.703125 C 9.089844 -9.390625 8.3125 -9 7.597656 -8.53125 C 6.945312 -8.085938 6.433594 -7.5625 6.054688 -6.953125 C 5.675781 -6.347656 5.488281 -5.628906 5.488281 -4.792969 C 5.488281 -3.707031 5.773438 -2.914062 6.335938 -2.402344 C 6.90625 -1.894531 7.625 -1.640625 8.496094 -1.640625 C 9.421875 -1.640625 10.234375 -1.867188 10.9375 -2.316406 C 11.640625 -2.765625 12.234375 -3.296875 12.714844 -3.910156 Z "/>
</g>
<g id="glyph-0-3">
<path d="M 22.675781 0 L 13.261719 0 L 13.261719 -1.289062 C 13.5625 -1.316406 13.890625 -1.339844 14.25 -1.367188 C 14.605469 -1.394531 14.902344 -1.445312 15.136719 -1.523438 C 15.5 -1.640625 15.773438 -1.84375 15.945312 -2.140625 C 16.125 -2.429688 16.210938 -2.8125 16.210938 -3.28125 L 16.210938 -13.183594 C 16.210938 -14.550781 15.886719 -15.605469 15.242188 -16.347656 C 14.597656 -17.089844 13.808594 -17.460938 12.882812 -17.460938 C 12.191406 -17.460938 11.558594 -17.351562 10.984375 -17.140625 C 10.410156 -16.921875 9.902344 -16.660156 9.457031 -16.347656 C 9.027344 -16.046875 8.683594 -15.726562 8.429688 -15.382812 C 8.175781 -15.035156 7.988281 -14.757812 7.871094 -14.550781 L 7.871094 -3.476562 C 7.871094 -3.035156 7.960938 -2.667969 8.144531 -2.382812 C 8.328125 -2.097656 8.601562 -1.875 8.964844 -1.71875 C 9.238281 -1.589844 9.535156 -1.492188 9.851562 -1.425781 C 10.171875 -1.359375 10.5 -1.316406 10.839844 -1.289062 L 10.839844 0 L 1.40625 0 L 1.40625 -1.289062 C 1.707031 -1.316406 2.015625 -1.339844 2.335938 -1.367188 C 2.652344 -1.394531 2.929688 -1.445312 3.164062 -1.523438 C 3.527344 -1.640625 3.796875 -1.84375 3.976562 -2.136719 C 4.148438 -2.429688 4.238281 -2.8125 4.238281 -3.277344 L 4.238281 -15.160156 C 4.238281 -15.601562 4.144531 -16.007812 3.953125 -16.378906 C 3.765625 -16.75 3.503906 -17.050781 3.164062 -17.285156 C 2.917969 -17.441406 2.625 -17.554688 2.285156 -17.628906 C 1.945312 -17.699219 1.582031 -17.746094 1.191406 -17.773438 L 1.191406 -19.0625 L 7.597656 -19.492188 L 7.871094 -19.21875 L 7.871094 -16.503906 L 7.96875 -16.503906 C 8.28125 -16.816406 8.671875 -17.191406 9.140625 -17.625 C 9.609375 -18.0625 10.050781 -18.417969 10.46875 -18.691406 C 10.949219 -19.003906 11.523438 -19.265625 12.1875 -19.472656 C 12.851562 -19.679688 13.601562 -19.785156 14.433594 -19.785156 C 16.28125 -19.785156 17.652344 -19.210938 18.546875 -18.054688 C 19.4375 -16.90625 19.882812 -15.371094 19.882812 -13.457031 L 19.882812 -3.4375 C 19.882812 -2.980469 19.960938 -2.613281 20.117188 -2.335938 C 20.273438 -2.054688 20.539062 -1.835938 20.917969 -1.679688 C 21.230469 -1.550781 21.5 -1.457031 21.726562 -1.40625 C 21.957031 -1.355469 22.273438 -1.316406 22.675781 -1.289062 Z "/>
</g>
<g id="glyph-0-4">
<path d="M 22.5 -0.351562 L 15.761719 0.078125 L 15.46875 -0.195312 L 15.46875 -1.992188 L 15.3125 -2.03125 C 14.636719 -1.277344 13.800781 -0.65625 12.804688 -0.175781 C 11.8125 0.304688 10.789062 0.546875 9.734375 0.546875 C 8.640625 0.546875 7.585938 0.300781 6.566406 -0.1875 C 5.542969 -0.671875 4.65625 -1.359375 3.902344 -2.246094 C 3.136719 -3.144531 2.527344 -4.226562 2.078125 -5.488281 C 1.628906 -6.75 1.40625 -8.144531 1.40625 -9.667969 C 1.40625 -11.0625 1.648438 -12.382812 2.128906 -13.632812 C 2.609375 -14.882812 3.273438 -15.976562 4.117188 -16.914062 C 4.910156 -17.785156 5.882812 -18.484375 7.03125 -19.003906 C 8.183594 -19.523438 9.355469 -19.785156 10.554688 -19.785156 C 11.449219 -19.785156 12.332031 -19.671875 13.195312 -19.445312 C 14.0625 -19.214844 14.804688 -18.925781 15.429688 -18.574219 L 15.429688 -25.285156 C 15.429688 -25.835938 15.339844 -26.332031 15.15625 -26.785156 C 14.972656 -27.234375 14.71875 -27.578125 14.394531 -27.8125 C 14.03125 -28.058594 13.539062 -28.238281 12.921875 -28.347656 C 12.300781 -28.460938 11.632812 -28.542969 10.917969 -28.59375 L 10.917969 -29.804688 L 18.808594 -30.234375 L 19.101562 -29.941406 L 19.101562 -3.984375 C 19.101562 -3.527344 19.1875 -3.140625 19.367188 -2.820312 C 19.539062 -2.503906 19.796875 -2.234375 20.136719 -2.011719 C 20.382812 -1.855469 20.742188 -1.757812 21.210938 -1.71875 C 21.679688 -1.679688 22.109375 -1.652344 22.5 -1.640625 L 22.5 -0.351562 M 15.429688 -3.730469 L 15.429688 -15 C 15.324219 -15.339844 15.15625 -15.703125 14.921875 -16.09375 C 14.6875 -16.484375 14.398438 -16.84375 14.046875 -17.167969 C 13.667969 -17.492188 13.226562 -17.765625 12.71875 -17.976562 C 12.214844 -18.195312 11.621094 -18.300781 10.945312 -18.300781 C 10.167969 -18.300781 9.449219 -18.097656 8.792969 -17.695312 C 8.136719 -17.292969 7.554688 -16.710938 7.046875 -15.957031 C 6.566406 -15.226562 6.1875 -14.300781 5.90625 -13.171875 C 5.628906 -12.046875 5.488281 -10.800781 5.488281 -9.433594 C 5.488281 -8.339844 5.59375 -7.347656 5.800781 -6.453125 C 6.007812 -5.5625 6.359375 -4.734375 6.851562 -3.964844 C 7.308594 -3.234375 7.890625 -2.648438 8.597656 -2.207031 C 9.304688 -1.765625 10.148438 -1.542969 11.121094 -1.542969 C 12.160156 -1.542969 13.023438 -1.769531 13.703125 -2.226562 C 14.386719 -2.683594 14.960938 -3.183594 15.429688 -3.730469 Z "/>
</g>
<g id="glyph-0-5">
<path d="M 16.152344 -16.777344 C 16.152344 -16.113281 15.988281 -15.523438 15.664062 -15.007812 C 15.339844 -14.496094 14.835938 -14.238281 14.160156 -14.238281 C 13.429688 -14.238281 12.875 -14.425781 12.492188 -14.804688 C 12.105469 -15.183594 11.914062 -15.597656 11.914062 -16.054688 C 11.914062 -16.339844 11.9375 -16.601562 11.984375 -16.835938 C 12.027344 -17.070312 12.070312 -17.304688 12.109375 -17.539062 C 11.496094 -17.539062 10.78125 -17.292969 9.960938 -16.796875 C 9.140625 -16.300781 8.445312 -15.597656 7.871094 -14.6875 L 7.871094 -3.476562 C 7.871094 -3.019531 7.960938 -2.648438 8.132812 -2.363281 C 8.3125 -2.078125 8.585938 -1.863281 8.964844 -1.71875 C 9.289062 -1.589844 9.710938 -1.492188 10.226562 -1.425781 C 10.738281 -1.359375 11.183594 -1.316406 11.5625 -1.289062 L 11.5625 0 L 1.40625 0 L 1.40625 -1.289062 C 1.707031 -1.316406 2.015625 -1.339844 2.335938 -1.367188 C 2.652344 -1.394531 2.929688 -1.445312 3.164062 -1.523438 C 3.527344 -1.640625 3.796875 -1.84375 3.976562 -2.136719 C 4.148438 -2.429688 4.238281 -2.8125 4.238281 -3.277344 L 4.238281 -15.160156 C 4.238281 -15.5625 4.144531 -15.960938 3.953125 -16.347656 C 3.765625 -16.738281 3.503906 -17.050781 3.164062 -17.285156 C 2.917969 -17.441406 2.625 -17.554688 2.285156 -17.628906 C 1.945312 -17.699219 1.582031 -17.746094 1.191406 -17.773438 L 1.191406 -19.0625 L 7.597656 -19.492188 L 7.871094 -19.21875 L 7.871094 -16.503906 L 7.96875 -16.503906 C 8.777344 -17.558594 9.675781 -18.359375 10.664062 -18.90625 C 11.652344 -19.453125 12.558594 -19.726562 13.378906 -19.726562 C 14.199219 -19.726562 14.867188 -19.460938 15.382812 -18.925781 C 15.894531 -18.390625 16.152344 -17.675781 16.152344 -16.777344 Z "/>
</g>
</g>
</defs>
<g fill="rgb(34.117647%, 16.470588%, 45.490196%)" fill-opacity="1">
<use xlink:href="#glyph-0-0" x="30" y="56.679688"/>
<use xlink:href="#glyph-0-1" x="47" y="56.679688"/>
<use xlink:href="#glyph-0-2" x="61" y="56.679688"/>
<use xlink:href="#glyph-0-3" x="81" y="56.679688"/>
<use xlink:href="#glyph-0-4" x="105" y="56.679688"/>
<use xlink:href="#glyph-0-2" x="128" y="56.679688"/>
<use xlink:href="#glyph-0-5" x="148" y="56.679688"/>
<use xlink:href="#glyph-0-4" x="164" y="56.679688"/>
</g>
</svg>
