<?xml version="1.0" encoding="UTF-8"?>
<svg xmlns="http://www.w3.org/2000/svg" xmlns:xlink="http://www.w3.org/1999/xlink" width="1280" height="720" viewBox="0 0 1280 720">
<defs>
<g>
<g id="glyph-0-0">
<path d="M 39.609375 -26.328125 C 39.285156 -26.316406 38.90625 -26.242188 38.476562 -26.101562 C 38.046875 -25.96875 37.648438 -25.789062 37.285156 -25.566406 C 36.828125 -25.28125 36.460938 -24.953125 36.179688 -24.578125 C 35.902344 -24.210938 35.65625 -23.691406 35.449219 -23.027344 C 34.523438 -20.019531 33.449219 -16.507812 32.226562 -12.492188 C 31.003906 -8.472656 29.679688 -4.191406 28.261719 0.351562 L 26.464844 0.351562 L 19.46875 -20.996094 L 12.195312 0.351562 L 10.46875 0.351562 C 9.179688 -4.207031 7.84375 -8.9375 6.464844 -13.835938 C 5.085938 -18.742188 4.160156 -22.023438 3.691406 -23.691406 C 3.574219 -24.09375 3.402344 -24.453125 3.171875 -24.765625 C 2.945312 -25.078125 2.636719 -25.363281 2.246094 -25.625 C 1.921875 -25.847656 1.539062 -26.011719 1.101562 -26.125 C 0.667969 -26.234375 0.273438 -26.300781 -0.078125 -26.328125 L -0.078125 -27.714844 L 11.21875 -27.714844 L 11.21875 -26.328125 C 10.230469 -26.277344 9.386719 -26.179688 8.691406 -26.035156 C 7.992188 -25.890625 7.644531 -25.652344 7.644531 -25.3125 C 7.644531 -25.183594 7.664062 -25.007812 7.703125 -24.796875 C 7.742188 -24.578125 7.777344 -24.40625 7.800781 -24.277344 C 8.101562 -23.132812 8.632812 -21.238281 9.390625 -18.59375 C 10.152344 -15.949219 11.28125 -11.992188 12.777344 -6.71875 L 19.695312 -27.324219 L 21.605469 -27.324219 L 28.585938 -6.28125 C 29.527344 -9.515625 30.335938 -12.34375 31.015625 -14.761719 C 31.695312 -17.179688 32.257812 -19.25 32.699219 -20.972656 C 33.015625 -22.1875 33.210938 -23.015625 33.289062 -23.46875 C 33.367188 -23.914062 33.40625 -24.296875 33.40625 -24.609375 C 33.40625 -25.050781 33.101562 -25.421875 32.496094 -25.722656 C 31.890625 -26.023438 30.910156 -26.222656 29.558594 -26.328125 L 29.558594 -27.714844 L 39.609375 -27.714844 Z "/>
</g>
<g id="glyph-0-1">
<path d="M 20.195312 -9.824219 C 20.195312 -8.46875 19.980469 -7.136719 19.550781 -5.828125 C 19.121094 -4.519531 18.507812 -3.410156 17.710938 -2.5 C 16.8125 -1.457031 15.769531 -0.683594 14.585938 -0.175781 C 13.398438 0.332031 12.070312 0.585938 10.59375 0.585938 C 9.371094 0.585938 8.203125 0.355469 7.097656 -0.109375 C 5.988281 -0.570312 5.003906 -1.242188 4.144531 -2.128906 C 3.296875 -3 2.621094 -4.066406 2.121094 -5.320312 C 1.617188 -6.578125 1.367188 -7.988281 1.367188 -9.550781 C 1.367188 -12.558594 2.242188 -15.019531 3.996094 -16.933594 C 5.75 -18.847656 8.046875 -19.804688 10.890625 -19.804688 C 13.585938 -19.804688 15.8125 -18.894531 17.566406 -17.078125 C 19.320312 -15.265625 20.195312 -12.84375 20.195312 -9.824219 M 16.152344 -9.785156 C 16.152344 -10.761719 16.054688 -11.792969 15.859375 -12.882812 C 15.664062 -13.96875 15.371094 -14.890625 14.976562 -15.644531 C 14.5625 -16.453125 14.011719 -17.101562 13.335938 -17.585938 C 12.65625 -18.078125 11.828125 -18.320312 10.851562 -18.320312 C 9.84375 -18.320312 8.988281 -18.074219 8.277344 -17.578125 C 7.566406 -17.082031 6.988281 -16.40625 6.546875 -15.546875 C 6.128906 -14.753906 5.835938 -13.847656 5.664062 -12.832031 C 5.496094 -11.816406 5.410156 -10.832031 5.410156 -9.882812 C 5.410156 -8.632812 5.511719 -7.476562 5.714844 -6.414062 C 5.914062 -5.355469 6.238281 -4.40625 6.683594 -3.574219 C 7.125 -2.742188 7.683594 -2.085938 8.355469 -1.609375 C 9.027344 -1.136719 9.859375 -0.898438 10.851562 -0.898438 C 12.480469 -0.898438 13.773438 -1.6875 14.722656 -3.261719 C 15.675781 -4.835938 16.152344 -7.011719 16.152344 -9.785156 Z "/>
</g>
<g id="glyph-0-2">
<path d="M 16.152344 -16.777344 C 16.152344 -16.113281 15.988281 -15.523438 15.664062 -15.007812 C 15.339844 -14.496094 14.835938 -14.238281 14.160156 -14.238281 C 13.429688 -14.238281 12.875 -14.425781 12.492188 -14.804688 C 12.105469 -15.183594 11.914062 -15.597656 11.914062 -16.054688 C 11.914062 -16.339844 11.9375 -16.601562 11.984375 -16.835938 C 12.027344 -17.070312 12.070312 -17.304688 12.109375 -17.539062 C 11.496094 -17.539062 10.78125 -17.292969 9.960938 -16.796875 C 9.140625 -16.300781 8.445312 -15.597656 7.871094 -14.6875 L 7.871094 -3.476562 C 7.871094 -3.019531 7.960938 -2.648438 8.132812 -2.363281 C 8.3125 -2.078125 8.585938 -1.863281 8.964844 -1.71875 C 9.289062 -1.589844 9.710938 -1.492188 10.226562 -1.425781 C 10.738281 -1.359375 11.183594 -1.316406 11.5625 -1.289062 L 11.5625 0 L 1.40625 0 L 1.40625 -1.289062 C 1.707031 -1.316406 2.015625 -1.339844 2.335938 -1.367188 C 2.652344 -1.394531 2.929688 -1.445312 3.164062 -1.523438 C 3.527344 -1.640625 3.796875 -1.84375 3.976562 -2.136719 C 4.148438 -2.429688 4.238281 -2.8125 4.238281 -3.277344 L 4.238281 -15.160156 C 4.238281 -15.5625 4.144531 -15.960938 3.953125 -16.347656 C 3.765625 -16.738281 3.503906 -17.050781 3.164062 -17.285156 C 2.917969 -17.441406 2.625 -17.554688 2.285156 -17.628906 C 1.945312 -17.699219 1.582031 -17.746094 1.191406 -17.773438 L 1.191406 -19.0625 L 7.597656 -19.492188 L 7.871094 -19.21875 L 7.871094 -16.503906 L 7.96875 -16.503906 C 8.777344 -17.558594 9.675781 -18.359375 10.664062 -18.90625 C 11.652344 -19.453125 12.558594 -19.726562 13.378906 -19.726562 C 14.199219 -19.726562 14.867188 -19.460938 15.382812 -18.925781 C 15.894531 -18.390625 16.152344 -17.675781 16.152344 -16.777344 Z "/>
</g>
<g id="glyph-0-3">
<path d="M 10.429688 0 L 1.035156 0 L 1.035156 -1.289062 C 1.335938 -1.316406 1.652344 -1.34375 1.992188 -1.375 C 2.332031 -1.410156 2.609375 -1.457031 2.832031 -1.523438 C 3.195312 -1.640625 3.46875 -1.847656 3.652344 -2.140625 C 3.835938 -2.433594 3.925781 -2.8125 3.925781 -3.28125 L 3.925781 -25.601562 C 3.925781 -26.074219 3.824219 -26.511719 3.625 -26.921875 C 3.421875 -27.332031 3.15625 -27.65625 2.832031 -27.890625 C 2.597656 -28.046875 2.167969 -28.191406 1.542969 -28.320312 C 0.917969 -28.449219 0.417969 -28.527344 0.0390625 -28.554688 L 0.0390625 -29.804688 L 7.285156 -30.234375 L 7.558594 -29.941406 L 7.558594 -3.515625 C 7.558594 -3.058594 7.644531 -2.6875 7.8125 -2.390625 C 7.980469 -2.101562 8.253906 -1.875 8.632812 -1.71875 C 8.917969 -1.589844 9.203125 -1.492188 9.484375 -1.425781 C 9.761719 -1.359375 10.078125 -1.316406 10.429688 -1.289062 Z "/>
</g>
<g id="glyph-0-4">
<path d="M 22.5 -0.351562 L 15.761719 0.078125 L 15.46875 -0.195312 L 15.46875 -1.992188 L 15.3125 -2.03125 C 14.636719 -1.277344 13.800781 -0.65625 12.804688 -0.175781 C 11.8125 0.304688 10.789062 0.546875 9.734375 0.546875 C 8.640625 0.546875 7.585938 0.300781 6.566406 -0.1875 C 5.542969 -0.671875 4.65625 -1.359375 3.902344 -2.246094 C 3.136719 -3.144531 2.527344 -4.226562 2.078125 -5.488281 C 1.628906 -6.75 1.40625 -8.144531 1.40625 -9.667969 C 1.40625 -11.0625 1.648438 -12.382812 2.128906 -13.632812 C 2.609375 -14.882812 3.273438 -15.976562 4.117188 -16.914062 C 4.910156 -17.785156 5.882812 -18.484375 7.03125 -19.003906 C 8.183594 -19.523438 9.355469 -19.785156 10.554688 -19.785156 C 11.449219 -19.785156 12.332031 -19.671875 13.195312 -19.445312 C 14.0625 -19.214844 14.804688 -18.925781 15.429688 -18.574219 L 15.429688 -25.285156 C 15.429688 -25.835938 15.339844 -26.332031 15.15625 -26.785156 C 14.972656 -27.234375 14.71875 -27.578125 14.394531 -27.8125 C 14.03125 -28.058594 13.539062 -28.238281 12.921875 -28.347656 C 12.300781 -28.460938 11.632812 -28.542969 10.917969 -28.59375 L 10.917969 -29.804688 L 18.808594 -30.234375 L 19.101562 -29.941406 L 19.101562 -3.984375 C 19.101562 -3.527344 19.1875 -3.140625 19.367188 -2.820312 C 19.539062 -2.503906 19.796875 -2.234375 20.136719 -2.011719 C 20.382812 -1.855469 20.742188 -1.757812 21.210938 -1.71875 C 21.679688 -1.679688 22.109375 -1.652344 22.5 -1.640625 L 22.5 -0.351562 M 15.429688 -3.730469 L 15.429688 -15 C 15.324219 -15.339844 15.15625 -15.703125 14.921875 -16.09375 C 14.6875 -16.484375 14.398438 -16.84375 14.046875 -17.167969 C 13.667969 -17.492188 13.226562 -17.765625 12.71875 -17.976562 C 12.214844 -18.195312 11.621094 -18.300781 10.945312 -18.300781 C 10.167969 -18.300781 9.449219 -18.097656 8.792969 -17.695312 C 8.136719 -17.292969 7.554688 -16.710938 7.046875 -15.957031 C 6.566406 -15.226562 6.1875 -14.300781 5.90625 -13.171875 C 5.628906 -12.046875 5.488281 -10.800781 5.488281 -9.433594 C 5.488281 -8.339844 5.59375 -7.347656 5.800781 -6.453125 C 6.007812 -5.5625 6.359375 -4.734375 6.851562 -3.964844 C 7.308594 -3.234375 7.890625 -2.648438 8.597656 -2.207031 C 9.304688 -1.765625 10.148438 -1.542969 11.121094 -1.542969 C 12.160156 -1.542969 13.023438 -1.769531 13.703125 -2.226562 C 14.386719 -2.683594 14.960938 -3.183594 15.429688 -3.730469 Z "/>
</g>
<g id="glyph-0-5">
</g>
<g id="glyph-0-6">
<path d="M 22.363281 0 L 12.890625 0 L 12.890625 -1.289062 C 13.191406 -1.316406 13.523438 -1.339844 13.886719 -1.367188 C 14.25 -1.394531 14.550781 -1.445312 14.785156 -1.523438 C 15.148438 -1.640625 15.421875 -1.84375 15.59375 -2.140625 C 15.773438 -2.429688 15.859375 -2.8125 15.859375 -3.28125 L 15.859375 -13.183594 C 15.859375 -14.550781 15.535156 -15.605469 14.890625 -16.347656 C 14.246094 -17.089844 13.457031 -17.460938 12.53125 -17.460938 C 11.851562 -17.460938 11.222656 -17.351562 10.640625 -17.140625 C 10.0625 -16.921875 9.542969 -16.660156 9.085938 -16.347656 C 8.640625 -16.023438 8.300781 -15.695312 8.066406 -15.371094 C 7.832031 -15.046875 7.648438 -14.773438 7.519531 -14.550781 L 7.519531 -3.476562 C 7.519531 -3.035156 7.609375 -2.667969 7.78125 -2.382812 C 7.960938 -2.097656 8.230469 -1.875 8.59375 -1.71875 C 8.878906 -1.589844 9.175781 -1.492188 9.484375 -1.425781 C 9.789062 -1.359375 10.125 -1.316406 10.488281 -1.289062 L 10.488281 0 L 1.054688 0 L 1.054688 -1.289062 C 1.351562 -1.316406 1.664062 -1.34375 1.984375 -1.375 C 2.308594 -1.410156 2.582031 -1.457031 2.800781 -1.523438 C 3.164062 -1.640625 3.433594 -1.847656 3.613281 -2.140625 C 3.796875 -2.433594 3.886719 -2.8125 3.886719 -3.28125 L 3.886719 -25.71875 C 3.886719 -26.164062 3.785156 -26.605469 3.585938 -27.050781 C 3.382812 -27.492188 3.117188 -27.824219 2.792969 -28.046875 C 2.558594 -28.214844 2.144531 -28.335938 1.554688 -28.40625 C 0.960938 -28.480469 0.480469 -28.527344 0.117188 -28.554688 L 0.117188 -29.804688 L 7.246094 -30.234375 L 7.519531 -29.941406 L 7.519531 -16.503906 L 7.597656 -16.503906 C 8.027344 -16.933594 8.417969 -17.3125 8.773438 -17.648438 C 9.125 -17.976562 9.585938 -18.328125 10.160156 -18.691406 C 10.65625 -19.003906 11.238281 -19.265625 11.910156 -19.472656 C 12.582031 -19.679688 13.335938 -19.785156 14.171875 -19.785156 C 15.890625 -19.785156 17.214844 -19.242188 18.140625 -18.15625 C 19.066406 -17.066406 19.53125 -15.5 19.53125 -13.457031 L 19.53125 -3.4375 C 19.53125 -2.980469 19.613281 -2.613281 19.777344 -2.335938 C 19.941406 -2.054688 20.214844 -1.835938 20.59375 -1.679688 C 20.894531 -1.5625 21.167969 -1.476562 21.410156 -1.414062 C 21.652344 -1.359375 21.96875 -1.316406 22.363281 -1.289062 Z "/>
</g>
<g id="glyph-0-7">
<path d="M 30.097656 -18.007812 C 29.550781 -17.957031 28.960938 -17.726562 28.328125 -17.324219 C 27.699219 -16.921875 27.238281 -16.316406 26.953125 -15.507812 C 26.300781 -13.59375 25.6875 -11.78125 25.109375 -10.070312 C 24.527344 -8.355469 23.878906 -6.433594 23.164062 -4.296875 C 22.929688 -3.621094 22.691406 -2.890625 22.453125 -2.109375 C 22.210938 -1.328125 21.992188 -0.578125 21.796875 0.136719 L 20.132812 0.136719 L 14.9375 -14.058594 L 9.730469 0.136719 L 8.125 0.136719 C 7.148438 -2.753906 6.195312 -5.621094 5.265625 -8.46875 C 4.332031 -11.3125 3.507812 -13.789062 2.792969 -15.898438 C 2.585938 -16.511719 2.1875 -16.992188 1.601562 -17.34375 C 1.015625 -17.695312 0.449219 -17.902344 -0.0976562 -17.96875 L -0.0976562 -19.257812 L 8.492188 -19.257812 L 8.492188 -17.890625 C 8.0625 -17.878906 7.597656 -17.804688 7.09375 -17.675781 C 6.59375 -17.546875 6.34375 -17.332031 6.34375 -17.03125 C 6.34375 -16.980469 6.367188 -16.867188 6.410156 -16.699219 C 6.457031 -16.53125 6.511719 -16.347656 6.578125 -16.152344 C 6.996094 -14.789062 7.464844 -13.265625 7.992188 -11.582031 C 8.519531 -9.898438 9.199219 -7.710938 10.03125 -5.023438 L 14.945312 -18.867188 L 16.835938 -18.867188 L 21.855469 -5.214844 C 22.414062 -6.957031 22.972656 -8.644531 23.523438 -10.273438 C 24.078125 -11.90625 24.566406 -13.433594 24.980469 -14.863281 C 25.074219 -15.203125 25.160156 -15.511719 25.246094 -15.789062 C 25.332031 -16.070312 25.371094 -16.347656 25.371094 -16.621094 C 25.371094 -16.855469 25.269531 -17.0625 25.058594 -17.246094 C 24.851562 -17.429688 24.597656 -17.578125 24.296875 -17.695312 C 24.039062 -17.800781 23.753906 -17.878906 23.449219 -17.929688 C 23.144531 -17.980469 22.917969 -18.007812 22.773438 -18.007812 L 22.773438 -19.257812 L 30.097656 -19.257812 Z "/>
</g>
<g id="glyph-0-8">
<path d="M 19.648438 -0.351562 C 19.035156 -0.128906 18.5 0.046875 18.039062 0.1875 C 17.574219 0.320312 17.050781 0.390625 16.464844 0.390625 C 15.449219 0.390625 14.640625 0.152344 14.03125 -0.320312 C 13.429688 -0.796875 13.039062 -1.492188 12.871094 -2.402344 L 12.753906 -2.402344 C 11.90625 -1.464844 11 -0.75 10.03125 -0.253906 C 9.058594 0.242188 7.890625 0.488281 6.523438 0.488281 C 5.078125 0.488281 3.890625 0.046875 2.960938 -0.839844 C 2.027344 -1.726562 1.5625 -2.882812 1.5625 -4.316406 C 1.5625 -5.058594 1.667969 -5.722656 1.875 -6.308594 C 2.082031 -6.894531 2.394531 -7.421875 2.8125 -7.890625 C 3.136719 -8.28125 3.566406 -8.628906 4.101562 -8.9375 C 4.636719 -9.242188 5.136719 -9.484375 5.605469 -9.667969 C 6.191406 -9.890625 7.378906 -10.300781 9.171875 -10.898438 C 10.960938 -11.496094 12.167969 -11.964844 12.792969 -12.304688 L 12.792969 -14.238281 C 12.792969 -14.40625 12.757812 -14.734375 12.6875 -15.214844 C 12.613281 -15.695312 12.460938 -16.152344 12.226562 -16.582031 C 11.964844 -17.0625 11.597656 -17.484375 11.125 -17.84375 C 10.648438 -18.199219 9.972656 -18.378906 9.101562 -18.378906 C 8.503906 -18.378906 7.945312 -18.277344 7.429688 -18.078125 C 6.917969 -17.875 6.554688 -17.664062 6.347656 -17.441406 C 6.347656 -17.179688 6.410156 -16.796875 6.53125 -16.289062 C 6.65625 -15.78125 6.71875 -15.3125 6.71875 -14.882812 C 6.71875 -14.425781 6.515625 -14.011719 6.101562 -13.632812 C 5.695312 -13.253906 5.125 -13.066406 4.394531 -13.066406 C 3.742188 -13.066406 3.265625 -13.296875 2.960938 -13.757812 C 2.652344 -14.222656 2.5 -14.738281 2.5 -15.3125 C 2.5 -15.910156 2.710938 -16.484375 3.132812 -17.03125 C 3.558594 -17.578125 4.109375 -18.066406 4.785156 -18.496094 C 5.371094 -18.859375 6.082031 -19.167969 6.914062 -19.421875 C 7.746094 -19.675781 8.5625 -19.804688 9.355469 -19.804688 C 10.449219 -19.804688 11.402344 -19.730469 12.21875 -19.578125 C 13.03125 -19.429688 13.769531 -19.109375 14.433594 -18.613281 C 15.097656 -18.132812 15.601562 -17.476562 15.945312 -16.648438 C 16.292969 -15.824219 16.464844 -14.757812 16.464844 -13.457031 C 16.464844 -11.59375 16.445312 -9.945312 16.40625 -8.507812 C 16.367188 -7.066406 16.347656 -5.496094 16.347656 -3.789062 C 16.347656 -3.28125 16.433594 -2.878906 16.609375 -2.578125 C 16.785156 -2.277344 17.058594 -2.023438 17.421875 -1.816406 C 17.617188 -1.699219 17.925781 -1.632812 18.351562 -1.621094 C 18.773438 -1.609375 19.207031 -1.601562 19.648438 -1.601562 L 19.648438 -0.351562 M 12.832031 -10.664062 C 11.726562 -10.339844 10.753906 -10.019531 9.921875 -9.703125 C 9.089844 -9.390625 8.3125 -9 7.597656 -8.53125 C 6.945312 -8.085938 6.433594 -7.5625 6.054688 -6.953125 C 5.675781 -6.347656 5.488281 -5.628906 5.488281 -4.792969 C 5.488281 -3.707031 5.773438 -2.914062 6.335938 -2.402344 C 6.90625 -1.894531 7.625 -1.640625 8.496094 -1.640625 C 9.421875 -1.640625 10.234375 -1.867188 10.9375 -2.316406 C 11.640625 -2.765625 12.234375 -3.296875 12.714844 -3.910156 Z "/>
</g>
<g id="glyph-0-9">
<path d="M 18.515625 -4.53125 C 17.707031 -2.996094 16.628906 -1.769531 15.273438 -0.859375 C 13.917969 0.0507812 12.363281 0.507812 10.605469 0.507812 C 9.054688 0.507812 7.699219 0.234375 6.53125 -0.3125 C 5.367188 -0.859375 4.40625 -1.601562 3.652344 -2.539062 C 2.898438 -3.476562 2.332031 -4.570312 1.960938 -5.820312 C 1.59375 -7.070312 1.40625 -8.390625 1.40625 -9.785156 C 1.40625 -11.035156 1.605469 -12.261719 2 -13.46875 C 2.398438 -14.671875 2.980469 -15.753906 3.75 -16.71875 C 4.492188 -17.644531 5.414062 -18.386719 6.515625 -18.953125 C 7.613281 -19.519531 8.847656 -19.804688 10.214844 -19.804688 C 11.621094 -19.804688 12.824219 -19.582031 13.828125 -19.140625 C 14.832031 -18.699219 15.644531 -18.09375 16.269531 -17.324219 C 16.867188 -16.59375 17.3125 -15.734375 17.609375 -14.746094 C 17.898438 -13.757812 18.046875 -12.683594 18.046875 -11.523438 L 18.046875 -10.234375 L 5.292969 -10.234375 C 5.292969 -8.96875 5.414062 -7.820312 5.65625 -6.789062 C 5.894531 -5.757812 6.277344 -4.851562 6.796875 -4.066406 C 7.304688 -3.3125 7.96875 -2.714844 8.789062 -2.277344 C 9.609375 -1.839844 10.585938 -1.621094 11.71875 -1.621094 C 12.878906 -1.621094 13.875 -1.894531 14.71875 -2.4375 C 15.554688 -2.980469 16.367188 -3.957031 17.148438 -5.371094 L 18.515625 -4.53125 M 14.199219 -11.875 C 14.199219 -12.601562 14.136719 -13.378906 14.015625 -14.210938 C 13.890625 -15.042969 13.691406 -15.738281 13.417969 -16.296875 C 13.117188 -16.890625 12.707031 -17.378906 12.1875 -17.753906 C 11.667969 -18.132812 10.996094 -18.320312 10.175781 -18.320312 C 8.808594 -18.320312 7.671875 -17.753906 6.765625 -16.617188 C 5.863281 -15.480469 5.371094 -13.898438 5.292969 -11.875 Z "/>
</g>
<g id="glyph-0-10">
<path d="M -0.0585938 6.289062 C -0.0585938 5.636719 0.121094 5.109375 0.476562 4.695312 C 0.835938 4.289062 1.28125 4.082031 1.816406 4.082031 C 2.234375 4.082031 2.589844 4.160156 2.890625 4.316406 C 3.191406 4.46875 3.457031 4.667969 3.691406 4.914062 C 3.886719 5.109375 4.09375 5.375 4.316406 5.710938 C 4.535156 6.046875 4.710938 6.324219 4.84375 6.542969 C 5.492188 6.191406 6.269531 5.277344 7.175781 3.796875 C 8.082031 2.3125 8.734375 1.015625 9.140625 -0.101562 C 7.902344 -3.1875 6.78125 -5.945312 5.78125 -8.382812 C 4.777344 -10.816406 3.730469 -13.335938 2.636719 -15.9375 C 2.390625 -16.535156 1.972656 -17 1.386719 -17.335938 C 0.800781 -17.664062 0.214844 -17.878906 -0.371094 -17.96875 L -0.371094 -19.257812 L 8.421875 -19.257812 L 8.421875 -17.890625 C 8.03125 -17.878906 7.5625 -17.796875 7.015625 -17.648438 C 6.46875 -17.496094 6.195312 -17.324219 6.195312 -17.128906 C 6.195312 -17.050781 6.222656 -16.921875 6.28125 -16.738281 C 6.339844 -16.558594 6.410156 -16.367188 6.488281 -16.171875 C 6.980469 -14.886719 7.734375 -13.027344 8.746094 -10.601562 C 9.761719 -8.175781 10.546875 -6.234375 11.105469 -4.777344 C 11.691406 -6.167969 12.300781 -7.609375 12.933594 -9.097656 C 13.566406 -10.589844 14.273438 -12.347656 15.054688 -14.378906 C 15.144531 -14.625 15.277344 -14.964844 15.445312 -15.402344 C 15.613281 -15.839844 15.699219 -16.210938 15.699219 -16.523438 C 15.699219 -16.863281 15.402344 -17.179688 14.8125 -17.472656 C 14.21875 -17.765625 13.65625 -17.941406 13.121094 -18.007812 L 13.121094 -19.257812 L 20.273438 -19.257812 L 20.273438 -18.046875 C 19.882812 -17.980469 19.367188 -17.757812 18.730469 -17.375 C 18.09375 -16.988281 17.617188 -16.445312 17.304688 -15.742188 C 15.753906 -12.148438 14.378906 -8.875 13.171875 -5.917969 C 11.96875 -2.960938 11.054688 -0.789062 10.429688 0.605469 C 9.609375 2.429688 8.875 3.851562 8.234375 4.875 C 7.585938 5.894531 6.960938 6.699219 6.347656 7.285156 C 5.75 7.832031 5.203125 8.199219 4.71875 8.390625 C 4.226562 8.578125 3.722656 8.671875 3.203125 8.671875 C 2.1875 8.671875 1.390625 8.429688 0.8125 7.949219 C 0.230469 7.46875 -0.0585938 6.914062 -0.0585938 6.289062 Z "/>
</g>
<g id="glyph-0-11">
<path d="M 22.050781 -0.351562 L 15.761719 0.078125 L 15.46875 -0.195312 L 15.46875 -2.636719 L 15.351562 -2.636719 C 15.039062 -2.3125 14.6875 -1.960938 14.300781 -1.59375 C 13.910156 -1.21875 13.460938 -0.886719 12.953125 -0.585938 C 12.367188 -0.234375 11.804688 0.03125 11.257812 0.214844 C 10.710938 0.398438 9.9375 0.488281 8.9375 0.488281 C 7.234375 0.488281 5.9375 -0.0664062 5.046875 -1.179688 C 4.15625 -2.292969 3.710938 -3.90625 3.710938 -6.027344 L 3.710938 -15.238281 C 3.710938 -15.707031 3.621094 -16.097656 3.445312 -16.417969 C 3.269531 -16.734375 3.011719 -17.011719 2.667969 -17.246094 C 2.433594 -17.402344 2.136719 -17.515625 1.785156 -17.589844 C 1.429688 -17.660156 1.058594 -17.707031 0.664062 -17.734375 L 0.664062 -19.023438 L 7.089844 -19.492188 L 7.382812 -19.21875 L 7.382812 -5.839844 C 7.382812 -4.445312 7.695312 -3.398438 8.320312 -2.695312 C 8.945312 -1.992188 9.695312 -1.640625 10.566406 -1.640625 C 11.28125 -1.640625 11.921875 -1.75 12.480469 -1.972656 C 13.039062 -2.191406 13.507812 -2.453125 13.886719 -2.753906 C 14.238281 -3.027344 14.546875 -3.316406 14.8125 -3.621094 C 15.082031 -3.925781 15.285156 -4.210938 15.429688 -4.46875 L 15.429688 -15.375 C 15.429688 -15.804688 15.339844 -16.183594 15.15625 -16.515625 C 14.972656 -16.847656 14.71875 -17.128906 14.394531 -17.363281 C 14.160156 -17.519531 13.8125 -17.613281 13.351562 -17.648438 C 12.886719 -17.679688 12.371094 -17.707031 11.796875 -17.734375 L 11.796875 -19.023438 L 18.808594 -19.492188 L 19.101562 -19.21875 L 19.101562 -3.941406 C 19.101562 -3.5 19.191406 -3.125 19.375 -2.8125 C 19.558594 -2.5 19.8125 -2.230469 20.136719 -2.011719 C 20.371094 -1.867188 20.652344 -1.773438 20.976562 -1.726562 C 21.300781 -1.683594 21.660156 -1.652344 22.050781 -1.640625 Z "/>
</g>
<g id="glyph-0-12">
<path d="M 15.058594 -25.972656 C 15.773438 -25.21875 16.304688 -24.367188 16.648438 -23.421875 C 16.996094 -22.476562 17.167969 -21.449219 17.167969 -20.34375 C 17.167969 -17.929688 16.398438 -15.960938 14.863281 -14.4375 C 13.328125 -12.910156 11.21875 -11.992188 8.535156 -11.679688 L 8.535156 -7.363281 L 6.738281 -7.363281 L 6.738281 -14.765625 C 7.558594 -14.832031 8.371094 -14.964844 9.179688 -15.167969 C 9.988281 -15.367188 10.710938 -15.699219 11.347656 -16.15625 C 12.011719 -16.636719 12.53125 -17.222656 12.898438 -17.90625 C 13.273438 -18.589844 13.457031 -19.546875 13.457031 -20.773438 C 13.457031 -22.726562 13.042969 -24.226562 12.21875 -25.269531 C 11.390625 -26.3125 10.183594 -26.835938 8.59375 -26.835938 C 7.996094 -26.835938 7.46875 -26.75 7.023438 -26.570312 C 6.570312 -26.398438 6.242188 -26.230469 6.035156 -26.074219 C 6.101562 -25.761719 6.1875 -25.3125 6.296875 -24.726562 C 6.410156 -24.140625 6.464844 -23.691406 6.464844 -23.378906 C 6.464844 -22.898438 6.257812 -22.457031 5.839844 -22.0625 C 5.421875 -21.664062 4.816406 -21.464844 4.023438 -21.464844 C 3.320312 -21.464844 2.820312 -21.707031 2.519531 -22.1875 C 2.21875 -22.667969 2.070312 -23.230469 2.070312 -23.867188 C 2.070312 -24.386719 2.214844 -24.898438 2.5 -25.398438 C 2.785156 -25.902344 3.234375 -26.386719 3.847656 -26.855469 C 4.367188 -27.273438 5.074219 -27.628906 5.96875 -27.929688 C 6.859375 -28.230469 7.785156 -28.378906 8.75 -28.378906 C 10.128906 -28.378906 11.355469 -28.160156 12.421875 -27.722656 C 13.488281 -27.289062 14.367188 -26.703125 15.058594 -25.972656 M 10.371094 -2.246094 C 10.371094 -1.515625 10.109375 -0.894531 9.578125 -0.382812 C 9.050781 0.132812 8.425781 0.390625 7.695312 0.390625 C 6.964844 0.390625 6.335938 0.132812 5.8125 -0.382812 C 5.28125 -0.894531 5.019531 -1.515625 5.019531 -2.246094 C 5.019531 -2.976562 5.28125 -3.601562 5.8125 -4.132812 C 6.335938 -4.65625 6.964844 -4.921875 7.695312 -4.921875 C 8.425781 -4.921875 9.050781 -4.65625 9.578125 -4.132812 C 10.109375 -3.601562 10.371094 -2.976562 10.371094 -2.246094 Z "/>
</g>
</g>
</defs>
<g fill="rgb(0%, 0%, 0%)" fill-opacity="1">
<use xlink:href="#glyph-0-0" x="30" y="56.679688"/>
<use xlink:href="#glyph-0-1" x="69" y="56.679688"/>
<use xlink:href="#glyph-0-2" x="91" y="56.679688"/>
<use xlink:href="#glyph-0-3" x="107" y="56.679688"/>
<use xlink:href="#glyph-0-4" x="118" y="56.679688"/>
<use xlink:href="#glyph-0-5" x="141" y="56.679688"/>
<use xlink:href="#glyph-0-6" x="151" y="56.679688"/>
<use xlink:href="#glyph-0-1" x="174" y="56.679688"/>
<use xlink:href="#glyph-0-7" x="196" y="56.679688"/>
<use xlink:href="#glyph-0-5" x="225" y="56.679688"/>
<use xlink:href="#glyph-0-8" x="235" y="56.679688"/>
<use xlink:href="#glyph-0-2" x="255" y="56.679688"/>
<use xlink:href="#glyph-0-9" x="271" y="56.679688"/>
<use xlink:href="#glyph-0-5" x="290" y="56.679688"/>
<use xlink:href="#glyph-0-10" x="300" y="56.679688"/>
<use xlink:href="#glyph-0-1" x="320" y="56.679688"/>
<use xlink:href="#glyph-0-11" x="342" y="56.679688"/>
<use xlink:href="#glyph-0-12" x="365" y="56.679688"/>
</g>
</svg>
